{
  "accessors": [
    {
      "bufferView": 2,
      "componentType": 5126,
      "count": 2726,
      "max": [
        16.74747657775879,
        24.12094497680664,
        4.375126838684082
      ],
      "min": [
        -16.74747657775879,
        0.0,
        -4.375126838684082
      ],
      "type": "VEC3"
    },
    {
      "bufferView": 2,
      "byteOffset": 32712,
      "componentType": 5126,
      "count": 2726,
      "max": [
        0.9994771480560303,
        1.0,
        1.0
      ],
      "min": [
        -0.999477207660675,
        -1.0,
        -1.0
      ],
      "type": "VEC3"
    },
    {
      "bufferView": 3,
      "componentType": 5126,
      "count": 2726,
      "max": [
        1.0,
        0.9994804263114929,
        1.0,
        1.0
      ],
      "min": [
        -1.0,
        -1.0,
        -1.0,
        -1.0
      ],
      "type": "VEC4"
    },
    {
      "bufferView": 1,
      "componentType": 5126,
      "count": 2726,
      "max": [
        1.662112832069397,
        1.0046926736831665
      ],
      "min": [
        -0.6621127128601074,
        0.004047214984893799
      ],
      "type": "VEC2"
    },
    {
      "bufferView": 1,
      "byteOffset": 21808,
      "componentType": 5126,
      "count": 2726,
      "max": [
        1.662112832069397,
        1.0046926736831665
      ],
      "min": [
        -0.6621127128601074,
        0.004047214984893799
      ],
      "type": "VEC2"
    },
    {
      "bufferView": 1,
      "byteOffset": 43616,
      "componentType": 5126,
      "count": 2726,
      "max": [
        1.662112832069397,
        1.0046926736831665
      ],
      "min": [
        -0.6621127128601074,
        0.004047214984893799
      ],
      "type": "VEC2"
    },
    {
      "bufferView": 0,
      "componentType": 5125,
      "count": 7578,
      "type": "SCALAR"
    },
    {
      "bufferView": 2,
      "byteOffset": 65424,
      "componentType": 5126,
      "count": 3080,
      "max": [
        19.725341796875,
        26.8494873046875,
        5.205544471740723
      ],
      "min": [
        -19.725341796875,
        8.104659080505371,
        -5.205544471740723
      ],
      "type": "VEC3"
    },
    {
      "bufferView": 2,
      "byteOffset": 102384,
      "componentType": 5126,
      "count": 3080,
      "max": [
        1.0,
        1.0,
        1.0
      ],
      "min": [
        -1.0,
        -1.0,
        -1.0
      ],
      "type": "VEC3"
    },
    {
      "bufferView": 3,
      "byteOffset": 43616,
      "componentType": 5126,
      "count": 3080,
      "max": [
        1.0,
        1.0,
        1.0,
        1.0
      ],
      "min": [
        -0.9956954717636108,
        -1.0,
        -1.0,
        -1.0
      ],
      "type": "VEC4"
    },
    {
      "bufferView": 1,
      "byteOffset": 65424,
      "componentType": 5126,
      "count": 3080,
      "max": [
        2.0075671672821045,
        0.9903104305267334
      ],
      "min": [
        -1.1188580989837646,
        0.005534083116799593
      ],
      "type": "VEC2"
    },
    {
      "bufferView": 1,
      "byteOffset": 90064,
      "componentType": 5126,
      "count": 3080,
      "max": [
        2.0075671672821045,
        0.9903104305267334
      ],
      "min": [
        -1.1188580989837646,
        0.005534083116799593
      ],
      "type": "VEC2"
    },
    {
      "bufferView": 1,
      "byteOffset": 114704,
      "componentType": 5126,
      "count": 3080,
      "max": [
        2.0075671672821045,
        0.9903104305267334
      ],
      "min": [
        -1.1188580989837646,
        0.005534083116799593
      ],
      "type": "VEC2"
    },
    {
      "bufferView": 0,
      "byteOffset": 30312,
      "componentType": 5125,
      "count": 10218,
      "type": "SCALAR"
    }
  ],
  "asset": {
    "extras": {
      "author": "Deerex 🦖 (https://sketchfab.com/darrencontreras)",
      "license": "CC-BY-4.0 (http://creativecommons.org/licenses/by/4.0/)",
      "source": "https://sketchfab.com/3d-models/torii-japanese-gate-32f0cae137064c4da4c8136bc0ff2f2d",
      "title": "Torii - Japanese Gate"
    },
    "generator": "Sketchfab-15.36.0",
    "version": "2.0"
  },
  "bufferViews": [
    {
      "buffer": 0,
      "byteLength": 71184,
      "name": "floatBufferViews",
      "target": 34963
    },
    {
      "buffer": 0,
      "byteLength": 139344,
      "byteOffset": 71184,
      "byteStride": 8,
      "name": "floatBufferViews",
      "target": 34962
    },
    {
      "buffer": 0,
      "byteLength": 139344,
      "byteOffset": 210528,
      "byteStride": 12,
      "name": "floatBufferViews",
      "target": 34962
    },
    {
      "buffer": 0,
      "byteLength": 92896,
      "byteOffset": 349872,
      "byteStride": 16,
      "name": "floatBufferViews",
      "target": 34962
    }
  ],
  "buffers": [
    {
      "byteLength": 442768,
      "uri": "scene.bin"
    }
  ],
  "images": [
    {
      "uri": "textures/M_Trim_01_baseColor.png"
    },
    {
      "uri": "textures/M_Trim_01_metallicRoughness.png"
    },
    {
      "uri": "textures/M_Trim_01_normal.png"
    },
    {
      "uri": "textures/M_Trim_02_baseColor.png"
    },
    {
      "uri": "textures/M_Trim_02_metallicRoughness.png"
    },
    {
      "uri": "textures/M_Trim_02_normal.png"
    }
  ],
  "materials": [
    {
      "doubleSided": true,
      "name": "M_Trim_01",
      "normalTexture": {
        "index": 2
      },
      "occlusionTexture": {
        "index": 1
      },
      "pbrMetallicRoughness": {
        "baseColorTexture": {
          "index": 0
        },
        "metallicRoughnessTexture": {
          "index": 1
        }
      }
    },
    {
      "doubleSided": true,
      "name": "M_Trim_02",
      "normalTexture": {
        "index": 5
      },
      "occlusionTexture": {
        "index": 4
      },
      "pbrMetallicRoughness": {
        "baseColorTexture": {
          "index": 3
        },
        "metallicRoughnessTexture": {
          "index": 4
        }
      }
    }
  ],
  "meshes": [
    {
      "name": "SM_Torii_Gate_M_Trim_01_0",
      "primitives": [
        {
          "attributes": {
            "NORMAL": 1,
            "POSITION": 0,
            "TANGENT": 2,
            "TEXCOORD_0": 3,
            "TEXCOORD_1": 4,
            "TEXCOORD_2": 5
          },
          "indices": 6,
          "material": 0,
          "mode": 4
        }
      ]
    },
    {
      "name": "SM_Torii_Gate_M_Trim_02_0",
      "primitives": [
        {
          "attributes": {
            "NORMAL": 8,
            "POSITION": 7,
            "TANGENT": 9,
            "TEXCOORD_0": 10,
            "TEXCOORD_1": 11,
            "TEXCOORD_2": 12
          },
          "indices": 13,
          "material": 1,
          "mode": 4
        }
      ]
    }
  ],
  "nodes": [
    {
      "children": [
        1
      ],
      "matrix": [
        1.0,
        0.0,
        0.0,
        0.0,
        0.0,
        2.220446049250313e-16,
        -1.0,
        0.0,
        0.0,
        1.0,
        2.220446049250313e-16,
        0.0,
        0.0,
        0.0,
        0.0,
        1.0
      ],
      "name": "Sketchfab_model"
    },
    {
      "children": [
        2
      ],
      "matrix": [
        0.009999999776482582,
        0.0,
        0.0,
        0.0,
        0.0,
        0.0,
        0.009999999776482582,
        0.0,
        0.0,
        -0.009999999776482582,
        0.0,
        0.0,
        0.0,
        0.0,
        0.0,
        1.0
      ],
      "name": "d41a213cefc14fe8afb29fb5b62c9456.fbx"
    },
    {
      "children": [
        3
      ],
      "name": "RootNode"
    },
    {
      "children": [
        4
      ],
      "name": "Shinto_Japanese_Props"
    },
    {
      "children": [
        5,
        6
      ],
      "name": "SM_Torii_Gate"
    },
    {
      "mesh": 0,
      "name": "SM_Torii_Gate_M_Trim_01_0"
    },
    {
      "mesh": 1,
      "name": "SM_Torii_Gate_M_Trim_02_0"
    }
  ],
  "samplers": [
    {
      "magFilter": 9729,
      "minFilter": 9987,
      "wrapS": 10497,
      "wrapT": 10497
    }
  ],
  "scene": 0,
  "scenes": [
    {
      "name": "Sketchfab_Scene",
      "nodes": [
        0
      ]
    }
  ],
  "textures": [
    {
      "sampler": 0,
      "source": 0
    },
    {
      "sampler": 0,
      "source": 1
    },
    {
      "sampler": 0,
      "source": 2
    },
    {
      "sampler": 0,
      "source": 3
    },
    {
      "sampler": 0,
      "source": 4
    },
    {
      "sampler": 0,
      "source": 5
    }
  ]
}
