{
  "accessors": [
    {
      "bufferView": 2,
      "componentType": 5126,
      "count": 1072,
      "max": [
        2.393953323364258,
        10.937506675720215,
        1.9291653633117676
      ],
      "min": [
        -2.3939552307128906,
        0.7201904654502869,
        -1.9291644096374512
      ],
      "type": "VEC3"
    },
    {
      "bufferView": 2,
      "byteOffset": 12864,
      "componentType": 5126,
      "count": 1072,
      "max": [
        1.0,
        1.0,
        1.0
      ],
      "min": [
        -1.0,
        -1.0,
        -1.0
      ],
      "type": "VEC3"
    },
    {
      "bufferView": 3,
      "componentType": 5126,
      "count": 1072,
      "max": [
        1.0,
        1.0,
        1.0,
        1.0
      ],
      "min": [
        -1.0,
        -1.0,
        -1.0,
        -1.0
      ],
      "type": "VEC4"
    },
    {
      "bufferView": 1,
      "componentType": 5126,
      "count": 1072,
      "max": [
        1.0,
        0.9844819903373718
      ],
      "min": [
        0.0,
        0.21303576231002808
      ],
      "type": "VEC2"
    },
    {
      "bufferView": 1,
      "byteOffset": 8576,
      "componentType": 5126,
      "count": 1072,
      "max": [
        1.0,
        0.9844819903373718
      ],
      "min": [
        0.0,
        0.21303576231002808
      ],
      "type": "VEC2"
    },
    {
      "bufferView": 1,
      "byteOffset": 17152,
      "componentType": 5126,
      "count": 1072,
      "max": [
        1.0,
        0.9844819903373718
      ],
      "min": [
        0.0,
        0.21303576231002808
      ],
      "type": "VEC2"
    },
    {
      "bufferView": 0,
      "componentType": 5125,
      "count": 2256,
      "type": "SCALAR"
    },
    {
      "bufferView": 2,
      "byteOffset": 25728,
      "componentType": 5126,
      "count": 887,
      "max": [
        2.452530860900879,
        11.281235694885254,
        1.5010342597961426
      ],
      "min": [
        -2.4525322914123535,
        0.0,
        -1.5175623893737793
      ],
      "type": "VEC3"
    },
    {
      "bufferView": 2,
      "byteOffset": 36372,
      "componentType": 5126,
      "count": 887,
      "max": [
        1.0,
        1.0,
        1.0
      ],
      "min": [
        -1.0,
        -1.0,
        -1.0
      ],
      "type": "VEC3"
    },
    {
      "bufferView": 3,
      "byteOffset": 17152,
      "componentType": 5126,
      "count": 887,
      "max": [
        1.0,
        1.0,
        1.0,
        1.0
      ],
      "min": [
        -1.0,
        -1.0,
        -1.0,
        -1.0
      ],
      "type": "VEC4"
    },
    {
      "bufferView": 1,
      "byteOffset": 25728,
      "componentType": 5126,
      "count": 887,
      "max": [
        1.0,
        0.5988990068435669
      ],
      "min": [
        0.0,
        0.0
      ],
      "type": "VEC2"
    },
    {
      "bufferView": 1,
      "byteOffset": 32824,
      "componentType": 5126,
      "count": 887,
      "max": [
        1.0,
        0.5988990068435669
      ],
      "min": [
        0.0,
        0.0
      ],
      "type": "VEC2"
    },
    {
      "bufferView": 1,
      "byteOffset": 39920,
      "componentType": 5126,
      "count": 887,
      "max": [
        1.0,
        0.5988990068435669
      ],
      "min": [
        0.0,
        0.0
      ],
      "type": "VEC2"
    },
    {
      "bufferView": 0,
      "byteOffset": 9024,
      "componentType": 5125,
      "count": 2052,
      "type": "SCALAR"
    },
    {
      "bufferView": 2,
      "byteOffset": 47016,
      "componentType": 5126,
      "count": 656,
      "max": [
        2.243865966796875,
        10.884234428405762,
        1.2319846153259277
      ],
      "min": [
        -2.243865966796875,
        9.53736400604248,
        -1.2319836616516113
      ],
      "type": "VEC3"
    },
    {
      "bufferView": 2,
      "byteOffset": 54888,
      "componentType": 5126,
      "count": 656,
      "max": [
        0.988660991191864,
        0.9674733281135559,
        1.0
      ],
      "min": [
        -0.988663911819458,
        -0.9674635529518127,
        -1.0
      ],
      "type": "VEC3"
    },
    {
      "bufferView": 3,
      "byteOffset": 31344,
      "componentType": 5126,
      "count": 656,
      "max": [
        1.0,
        0.988660991191864,
        1.0,
        1.0
      ],
      "min": [
        -1.0,
        -0.9886639714241028,
        -1.0,
        -1.0
      ],
      "type": "VEC4"
    },
    {
      "bufferView": 1,
      "byteOffset": 47016,
      "componentType": 5126,
      "count": 656,
      "max": [
        1.399999976158142,
        1.399999976158142
      ],
      "min": [
        -0.4000000059604645,
        -0.40000009536743164
      ],
      "type": "VEC2"
    },
    {
      "bufferView": 1,
      "byteOffset": 52264,
      "componentType": 5126,
      "count": 656,
      "max": [
        1.399999976158142,
        1.399999976158142
      ],
      "min": [
        -0.4000000059604645,
        -0.40000009536743164
      ],
      "type": "VEC2"
    },
    {
      "bufferView": 1,
      "byteOffset": 57512,
      "componentType": 5126,
      "count": 656,
      "max": [
        1.399999976158142,
        1.399999976158142
      ],
      "min": [
        -0.4000000059604645,
        -0.40000009536743164
      ],
      "type": "VEC2"
    },
    {
      "bufferView": 0,
      "byteOffset": 17232,
      "componentType": 5125,
      "count": 2616,
      "type": "SCALAR"
    }
  ],
  "asset": {
    "extras": {
      "author": "Deerex 🦖 (https://sketchfab.com/darrencontreras)",
      "license": "CC-BY-4.0 (http://creativecommons.org/licenses/by/4.0/)",
      "source": "https://sketchfab.com/3d-models/toro-dai-doro-japanese-lantern-419a6144e0a24f7b916581b939e879e7",
      "title": "Toro / dai doro - Japanese Lantern"
    },
    "generator": "Sketchfab-15.36.0",
    "version": "2.0"
  },
  "bufferViews": [
    {
      "buffer": 0,
      "byteLength": 27696,
      "name": "floatBufferViews",
      "target": 34963
    },
    {
      "buffer": 0,
      "byteLength": 62760,
      "byteOffset": 27696,
      "byteStride": 8,
      "name": "floatBufferViews",
      "target": 34962
    },
    {
      "buffer": 0,
      "byteLength": 62760,
      "byteOffset": 90456,
      "byteStride": 12,
      "name": "floatBufferViews",
      "target": 34962
    },
    {
      "buffer": 0,
      "byteLength": 41840,
      "byteOffset": 153216,
      "byteStride": 16,
      "name": "floatBufferViews",
      "target": 34962
    }
  ],
  "buffers": [
    {
      "byteLength": 195056,
      "uri": "scene.bin"
    }
  ],
  "images": [
    {
      "uri": "textures/M_Trim_01_baseColor.png"
    },
    {
      "uri": "textures/M_Trim_01_metallicRoughness.png"
    },
    {
      "uri": "textures/M_Trim_01_normal.png"
    },
    {
      "uri": "textures/M_Trim_02_baseColor.png"
    },
    {
      "uri": "textures/M_Trim_02_metallicRoughness.png"
    },
    {
      "uri": "textures/M_Trim_02_normal.png"
    },
    {
      "uri": "textures/M_RoofTile_baseColor.png"
    },
    {
      "uri": "textures/M_RoofTile_metallicRoughness.png"
    },
    {
      "uri": "textures/M_RoofTile_normal.png"
    }
  ],
  "materials": [
    {
      "doubleSided": true,
      "name": "M_Trim_01",
      "normalTexture": {
        "index": 2
      },
      "occlusionTexture": {
        "index": 1
      },
      "pbrMetallicRoughness": {
        "baseColorTexture": {
          "index": 0
        },
        "metallicRoughnessTexture": {
          "index": 1
        }
      }
    },
    {
      "doubleSided": true,
      "name": "M_Trim_02",
      "normalTexture": {
        "index": 5
      },
      "occlusionTexture": {
        "index": 4
      },
      "pbrMetallicRoughness": {
        "baseColorTexture": {
          "index": 3
        },
        "metallicRoughnessTexture": {
          "index": 4
        }
      }
    },
    {
      "doubleSided": true,
      "name": "M_RoofTile",
      "normalTexture": {
        "index": 8
      },
      "occlusionTexture": {
        "index": 7
      },
      "pbrMetallicRoughness": {
        "baseColorTexture": {
          "index": 6
        },
        "metallicRoughnessTexture": {
          "index": 7
        }
      }
    }
  ],
  "meshes": [
    {
      "name": "SM_Lantern_M_Trim_01_0",
      "primitives": [
        {
          "attributes": {
            "NORMAL": 1,
            "POSITION": 0,
            "TANGENT": 2,
            "TEXCOORD_0": 3,
            "TEXCOORD_1": 4,
            "TEXCOORD_2": 5
          },
          "indices": 6,
          "material": 0,
          "mode": 4
        }
      ]
    },
    {
      "name": "SM_Lantern_M_Trim_02_0",
      "primitives": [
        {
          "attributes": {
            "NORMAL": 8,
            "POSITION": 7,
            "TANGENT": 9,
            "TEXCOORD_0": 10,
            "TEXCOORD_1": 11,
            "TEXCOORD_2": 12
          },
          "indices": 13,
          "material": 1,
          "mode": 4
        }
      ]
    },
    {
      "name": "SM_Lantern_M_RoofTile_0",
      "primitives": [
        {
          "attributes": {
            "NORMAL": 15,
            "POSITION": 14,
            "TANGENT": 16,
            "TEXCOORD_0": 17,
            "TEXCOORD_1": 18,
            "TEXCOORD_2": 19
          },
          "indices": 20,
          "material": 2,
          "mode": 4
        }
      ]
    }
  ],
  "nodes": [
    {
      "children": [
        1
      ],
      "matrix": [
        -0.9999942779541016,
        7.525756938420099e-19,
        -0.003389299614354968,
        0.0,
        -0.003389299614354968,
        -2.2204333437561043e-16,
        0.9999942779541016,
        0.0,
        0.0,
        1.0,
        2.220446049250313e-16,
        0.0,
        0.0,
        0.0,
        0.0,
        1.0
      ],
      "name": "Sketchfab_model"
    },
    {
      "children": [
        2
      ],
      "matrix": [
        0.009999999776482582,
        0.0,
        0.0,
        0.0,
        0.0,
        0.0,
        0.009999999776482582,
        0.0,
        0.0,
        -0.009999999776482582,
        0.0,
        0.0,
        0.0,
        0.0,
        0.0,
        1.0
      ],
      "name": "f1428a1dab614521a750dbbc86db8188.fbx"
    },
    {
      "children": [
        3
      ],
      "name": "RootNode"
    },
    {
      "children": [
        4
      ],
      "name": "Shinto_Japanese_Props"
    },
    {
      "children": [
        5,
        6,
        7
      ],
      "name": "SM_Lantern"
    },
    {
      "mesh": 0,
      "name": "SM_Lantern_M_Trim_01_0"
    },
    {
      "mesh": 1,
      "name": "SM_Lantern_M_Trim_02_0"
    },
    {
      "mesh": 2,
      "name": "SM_Lantern_M_RoofTile_0"
    }
  ],
  "samplers": [
    {
      "magFilter": 9729,
      "minFilter": 9987,
      "wrapS": 10497,
      "wrapT": 10497
    }
  ],
  "scene": 0,
  "scenes": [
    {
      "name": "Sketchfab_Scene",
      "nodes": [
        0
      ]
    }
  ],
  "textures": [
    {
      "sampler": 0,
      "source": 0
    },
    {
      "sampler": 0,
      "source": 1
    },
    {
      "sampler": 0,
      "source": 2
    },
    {
      "sampler": 0,
      "source": 3
    },
    {
      "sampler": 0,
      "source": 4
    },
    {
      "sampler": 0,
      "source": 5
    },
    {
      "sampler": 0,
      "source": 6
    },
    {
      "sampler": 0,
      "source": 7
    },
    {
      "sampler": 0,
      "source": 8
    }
  ]
}
